name processed_emg_signals
nRows=57
nColumns=7
 
endheader
time	LGLTMED	LRF	LADDLONG	LST	LTA	LGM
1.355	0.1068284211205706	0.408556648663761	0.90895802328096	0.0950133139185442	0.3424066736964229	0.0714792929961354
1.356	0.1061858956022094	0.406328449018444	0.9058727714915972	0.0941492257930581	0.3421002098668816	0.07134806747323
1.357	0.1055409977592943	0.4040236291004841	0.9027577641023712	0.0933594100053657	0.3417153616125193	0.0712478109377589
1.358	0.1048941756869795	0.4016473604002184	0.8996150179250659	0.0926423684893255	0.3412526573813973	0.071177454421208
1.359	0.1042458732096193	0.3992049072931058	0.8964465545666108	0.0919965500547225	0.3407126924371909	0.0711359227010171
1.36	0.1035965297136247	0.3967016174913563	0.8932543991085045	0.0914203536635592	0.3400961283891576	0.0711221358411902
1.361	0.1029465799676283	0.3941429124446938	0.8900405786431322	0.0909121317124421	0.3394036925975555	0.0711350106944604
1.362	0.1022964539312003	0.3915342777165809	0.8868071206776273	0.0904701933136934	0.3386361774549095	0.0711734623638219
1.363	0.1016465765535108	0.3888812533610894	0.8835560514172178	0.0900928075677759	0.3377944395454463	0.0712364056214336
1.364	0.1009973675637025	0.3861894243244386	0.8802893939402586	0.0897782068199883	0.3368793986871061	0.0713227562833818
1.365	0.1003492412547454	0.3834644108941659	0.8770091662768218	0.089524589894645	0.3358920368622288	0.0714314325391336
1.366	0.099702606262712	0.3807118592177373	0.8737173794015781	0.0893301253007409	0.3348333970439661	0.0715613562349887
1.367	0.0990578653432924	0.3779374319116464	0.8704160351494858	0.0891929544034941	0.3337045819257291	0.0717114541112012
1.368	0.098415415147415	0.3751467987811416	0.867107124061203	0.089111194556916	0.3325067525605102	0.07188065899287
1.369	0.097775645997628	0.3723456276699344	0.8637926231630533	0.0890829421928007	0.3312411269165937	0.0720679109349573
1.37	0.0971389416669459	0.3695395754584286	0.8604744936852996	0.0891062758619875	0.329908978355756	0.0722721583220065
1.371	0.0965056791615265	0.3667342792279533	0.8571546787216654	0.089179259223794	0.3285116340398899	0.0724923589232341
1.372	0.095876228508588	0.3639353476075774	0.8538351008328198	0.0892999439796376	0.3270504732716555	0.0727274809036577
1.373	0.0952509525504841	0.3611483523188977	0.8505176595965288	0.0894663727469114	0.3255269257746627	0.0729765037919598
1.374	0.0946302067459988	0.3583788199330444	0.8472042291085521	0.0896765818694675	0.3239424699188022	0.0732384194057077
1.375	0.0940143389795516	0.3556322238529074	0.8438966554389111	0.0899286041613732	0.3222986308965977	0.0735122327346467
1.3760000000000001	0.0934036893791254	0.3529139765324584	0.8405967540495786	0.0902204715812143	0.320596978856677	0.0737969627828841
1.377	0.0927985901435912	0.3502294219440577	0.8373063071806229	0.090550217834571	0.3188391270003353	0.0740916433708482
1.3780000000000001	0.0921993653800909	0.3475838283037487	0.8340270612134935	0.0909158809026563	0.3170267296467844	0.0743953238980534
1.379	0.0916063309520571	0.3449823810635624	0.8307607240221176	0.091315505495463	0.3151614802722658	0.0747070700677037
1.3800000000000001	0.0910197943382291	0.3424301761792063	0.827508962324252	0.0917471454277499	0.3132451095278432	0.0750259645740814
1.381	0.0904400545029489	0.3399322136604951	0.8242733990475987	0.0922088659163426	0.3112793832406111	0.0753511077535389
1.3820000000000001	0.0898674017779555	0.3374933914109311	0.8210556107264974	0.0926987457974085	0.3092661004029242	0.0756816181997765
1.383	0.089302117755761	0.3351184993619569	0.8178571249462904	0.0932148796625539	0.3072070911540467	0.076016633343913
1.3840000000000001	0.0887444751947777	0.3328122139062732	0.8146794178525761	0.0937553799130309	0.3051042147580082	0.0763553099997053
1.385	0.0881947379361986	0.3305790926338242	0.8115239117424604	0.0943183787315075	0.3029593575807317	0.0766968248741608
1.3860000000000001	0.0876531608326423	0.3284235693729058	0.8083919727543276	0.0949020299711686	0.3007744310686741	0.0770403750437253
1.387	0.0871199896884524	0.3263499495379762	0.8052849086716577	0.0955045109622769	0.2985513697305367	0.0773851783960715
1.3880000000000001	0.0865954612114559	0.32436240578469	0.8022039668558625	0.0961240242366953	0.296292129122968	0.0777304740376569
1.389	0.086079802976003	0.322464973971837	0.7991503323219928	0.0967587991710114	0.2939986838405689	0.0780755226670242
1.3900000000000001	0.0855732333968303	0.3206615494290133	0.7961251259700727	0.097407093549242	0.2916730255101621	0.0784196069140647
1.391	0.0850759617132601	0.3189558835279618	0.7931294029830566	0.0980671950460322	0.2893171607892245	0.0787620316452457
1.3920000000000001	0.0845881879829611	0.3173515805546145	0.7901641514003914	0.0987374226311842	0.2869331093685615	0.0791021242348423
1.393	0.0841101030842837	0.315852094877829	0.7872302908742164	0.0994161278962703	0.2845229019797342	0.0794392348019945
1.3940000000000001	0.083641888726001	0.314460728410172	0.7843286716127315	0.100101696303898	0.2820885784078571	0.0797727364132856
1.395	0.0831837174632849	0.3131806283550625	0.7814600735135536	0.1007925483600175	0.2796321855104527	0.0801020252504817
1.3960000000000001	0.0827357527185391	0.312014785233776	0.7786252054879415	0.1014871407095847	0.2771557752428115	0.0804265207430476
1.397	0.0822981488059864	0.3109660311848083	0.7758247049754629	0.1021839671559057	0.2746614026902398	0.0807456656653198
1.3980000000000001	0.0818710509586389	0.3100370385272768	0.7730591376478244	0.1028815596039711	0.2721511241074982	0.0810589261984104
1.399	0.08145459535651	0.3092303185793118	0.7703289972995908	0.1035784889283954	0.2696269949657113	0.0813657919571211
1.4000000000000001	0.0810489091548427	0.3085482207218404	0.7676347059231468	0.1042733657667078	0.2670910680070452	0.0816657759824108
1.401	0.0806541105112051	0.3079929316979758	0.7649766139649593	0.1049648412388978	0.2645453913073158	0.0819584147000291
1.4020000000000001	0.0802703086104248	0.3075664751378638	0.7623550007595329	0.1056516075944211	0.261992006346615	0.0822432678460327
1.403	0.0798976036865908	0.307270711298711	0.7597700751368801	0.1063323987877053	0.2594329460881889	0.0825199183599932
1.4040000000000001	0.0795360870414387	0.3071073370093577	0.7572219761984562	0.1070059909834121	0.2568702330661034	0.082787972246703
1.405	0.0791858410589613	0.30707788580833	0.7547107742558017	0.1076712029923726	0.2543058774827109	0.0830470584072309
1.4060000000000001	0.0788469392161234	0.3071837282639902	0.7522364719267058	0.1083268966392003	0.2517418753174091	0.0832968284401231
1.407	0.0785194460899229	0.3074260724649701	0.7497990053837651	0.1089719770626378	0.249180206448702	0.0835369564134875
1.408	0.0782034173612467	0.3078059646687479	0.7473982457509664	0.1096053929495868	0.2466228327919931	0.0837671386086479
1.409	0.0778988998159621	0.3083242900960322	0.7450340006443191	0.1102261367038807	0.2440716964557793	0.0839870932362109
1.41	0.0776059313440146	0.3089817738587865	0.7427060158524813	0.1108332445507338	0.2415287179188023	0.084196560125421
1.411	0.0773245409370487	0.3097789820102121	0.7404139771538049	0.111425796577758	0.2389957942307172	0.0843953003879679
